<?xml version="1.0" encoding="utf-8"?>
<!-- Generator: Adobe Illustrator 26.2.1, SVG Export Plug-In . SVG Version: 6.00 Build 0)  -->
<svg version="1.1" id="Layer_1" xmlns="http://www.w3.org/2000/svg" xmlns:xlink="http://www.w3.org/1999/xlink" x="0px" y="0px"
	 viewBox="0 0 1500 1500" style="enable-background:new 0 0 1500 1500;" xml:space="preserve">
<style type="text/css">
	.st0{fill:#FFFFFF;}
</style>
<path class="st0" d="M995.1,62.3c0,0,96.9,169.6,16.1,398.8c0,0-58.2,179.2-208,331S447.9,992.4,397.9,1394
	c0,0-74.4-300.3,71.5-555.5c0,0,72.2-133.4,192.2-234.6c33.7-28.5,66.8-57.9,98.7-88.7C866.5,412.6,986.8,295.6,995.1,62.3z"/>
<path class="st0" d="M614.7,172.5c0,0,53.8,94.1,9,221.3c0,0-32.3,99.4-115.4,183.7S311.1,688.5,283.4,911.3
	c0,0-41.3-166.6,39.6-308.2c0,0,39.2-72.5,104.6-128.4c22.5-19.2,44.6-39,66-59.8C550.1,360,610.4,295.3,614.7,172.5z"/>
<path class="st0" d="M1122.7,573.9c0,0,53.8,94.1,9,221.3c0,0-32.3,99.4-115.4,183.7c-83.1,84.2-197.2,111.1-224.9,333.9
	c0,0-41.3-166.6,39.6-308.2c0,0,39.2-72.5,104.6-128.4c22.5-19.2,44.6-39,66-59.8C1058,761.4,1118.3,696.7,1122.7,573.9z"/>
</svg>
